<?xml version="1.0" standalone="no"?>
<!DOCTYPE svg PUBLIC "-//W3C//DTD SVG 20010904//EN"
 "http://www.w3.org/TR/2001/REC-SVG-20010904/DTD/svg10.dtd">
<svg version="1.0" xmlns="http://www.w3.org/2000/svg"
 width="320.000000pt" height="406.000000pt" viewBox="0 0 320.000000 406.000000"
 preserveAspectRatio="xMidYMid meet">

<g transform="translate(0.000000,406.000000) scale(0.100000,-0.100000)"
fill="#000000" stroke="none">
<path d="M2661 3437 c-33 -17 -104 -155 -96 -187 12 -50 69 -75 115 -50 28 15
90 135 90 175 0 24 -7 39 -26 54 -31 24 -49 26 -83 8z"/>
<path d="M1179 3400 c-312 -48 -505 -363 -425 -695 17 -72 86 -226 150 -335
l36 -62 -26 -21 c-15 -11 -37 -43 -50 -71 -23 -48 -24 -61 -24 -261 0 -122 -5
-227 -11 -250 -6 -22 -42 -105 -80 -185 -98 -209 -122 -306 -123 -495 -1 -144
0 -152 26 -206 76 -153 255 -266 509 -320 125 -27 395 -32 519 -10 323 57 543
219 581 427 14 74 -4 250 -37 374 -14 52 -55 156 -91 230 -90 189 -94 207 -92
445 2 218 -2 239 -56 303 -15 18 -46 43 -69 55 -40 21 -51 22 -433 25 l-391 3
-72 129 c-105 189 -125 250 -125 381 0 102 1 108 38 181 42 87 92 136 177 177
47 22 68 26 150 26 86 0 101 -3 160 -31 71 -34 96 -56 211 -185 79 -87 143
-130 221 -144 33 -6 38 -11 44 -41 9 -51 56 -108 109 -134 46 -22 52 -23 264
-16 119 4 234 12 256 19 53 15 127 89 143 143 27 91 11 197 -40 259 -58 70
-88 78 -323 86 -115 4 -223 5 -240 2 -75 -14 -150 -76 -162 -134 -12 -59 -77
-29 -169 77 -94 110 -154 161 -229 198 -104 52 -220 71 -326 56z m1066 -449
l0 -99 -35 -6 c-55 -9 -119 -7 -141 4 -16 9 -19 22 -19 95 0 102 3 104 115
105 l80 0 0 -99z m253 73 c18 -13 22 -25 22 -71 0 -65 -18 -93 -60 -93 -41 0
-65 33 -65 92 0 40 5 53 24 69 28 23 49 24 79 3z m-1011 -856 c28 -26 30 -67
4 -99 -19 -23 -24 -24 -191 -27 l-172 -3 23 30 c17 24 21 39 17 75 l-6 46 151
0 c141 0 152 -1 174 -22z m356 11 c30 -16 37 -28 37 -65 0 -49 -30 -69 -105
-69 -74 0 -105 20 -105 68 0 50 34 77 97 77 30 0 64 -5 76 -11z m-804 -113 c8
-9 9 -16 3 -16 -19 0 -42 43 -41 75 l1 30 12 -36 c6 -20 17 -44 25 -53z m848
-243 c-4 -49 -10 -71 -26 -87 -21 -21 -27 -21 -420 -21 -469 0 -441 -7 -441
104 l0 66 446 1 447 2 -6 -65z m-443 -263 c315 1 420 4 448 14 l37 13 31 -63
c16 -35 44 -93 61 -129 49 -103 79 -226 86 -350 5 -105 4 -113 -20 -162 -79
-156 -326 -253 -641 -253 -305 0 -540 84 -635 226 -39 59 -46 111 -32 231 16
136 44 227 113 375 l60 126 40 -14 c33 -11 122 -14 452 -14z"/>
<path d="M2830 3164 c-83 -32 -100 -48 -100 -94 0 -46 26 -72 72 -72 42 1 156
46 174 69 21 28 17 71 -11 98 -30 31 -53 31 -135 -1z"/>
<path d="M2752 2874 c-28 -20 -31 -83 -4 -108 24 -21 139 -66 169 -66 33 0 73
43 73 78 0 37 -30 64 -103 91 -69 25 -105 27 -135 5z"/>
<path d="M2592 2683 c-37 -32 -36 -63 3 -139 55 -106 93 -127 149 -83 18 14
26 30 26 53 0 38 -63 162 -90 176 -28 15 -65 12 -88 -7z"/>
</g>
</svg>
